/* XPM */
static char *result[] = {
/* columns rows colors chars-per-pixel */
"32 32 12 1 ",
"  c #3A2A27",
". c #452827",
"X c #4D2E2A",
"o c #6B3D34",
"O c #7A625C",
"+ c #963D39",
"@ c #9A4538",
"# c #A44238",
"$ c #D65A40",
"% c #E67144",
"& c #6A8535",
"* c #CBA28C",
/* pixels */
"&&&&&&&&&&&&&&&&&&&&&&&&&&&&&&&&",
"&&&&&&&&&&&&&&&&&&&&&&&&&&&&&&&&",
"&&&&&&&&&&&&&&&&&&&&&&&&&&&&&&&&",
"&&&&&&&&&&&&&&&&&&&&&&&&&&&&&&&&",
"&&&&&&&&&&&&&&&&&&&&&&&&&&&&&&&&",
"&&&&&&&&&&&&&&&&&&&&&&&&&&&&&&&&",
"&&&&&&&&&&&&&&&&&&&&&&&&&&&&&&&&",
"&&&&&&&&&&&&&&&&&&&&&&&&&&&&&&&&",
"&&&&&&&&&&&&&&&&&&&&&&&&&&&&&&&&",
"&&&&&&&&&&&&###&XX&&&&&&&&&&&&&&",
"&&&&&&&&&&&#%%%+@@X&&&&&&&&&&&&&",
"&&&&&&&&&&&#%$.*$@X&&&&&&&&&&&&&",
"&&&&&&&&&&&#$$**+$XX&&&&&&&&&&&&",
"&&&&&&&&&&&&#**$$.@@X&&&&&&&&&&&",
"&&&&&&&&&&&&#$+$$.$@X&&&&&&&&&&&",
"&&&&&&&&&&&&&O*..$$X&&&&&&&&&&&&",
"&&&&&&&&&&&&&&O*$**# &&&&&&&&&&&",
"&&&&&&&&&&&&&&&O#*$$o &&&&&&&&&&",
"&&&&&&&&&&&&&&&&&#$oo &&&&&&&&&&",
"&&&&&&&&&&&&&&&&& oo &&&&&&&&&&&",
"&&&&&&&&&&&&&&&&&&  &&&&&&&&&&&&",
"&&&&&&&&&&&&&&&&&&&&&&&&&&&&&&&&",
"&&&&&&&&&&&&&&&&&&&&&&&&&&&&&&&&",
"&&&&&&&&&&&&&&&&&&&&&&&&&&&&&&&&",
"&&&&&&&&&&&&&&&&&&&&&&&&&&&&&&&&",
"&&&&&&&&&&&&&&&&&&&&&&&&&&&&&&&&",
"&&&&&&&&&&&&&&&&&&&&&&&&&&&&&&&&",
"&&&&&&&&&&&&&&&&&&&&&&&&&&&&&&&&",
"&&&&&&&&&&&&&&&&&&&&&&&&&&&&&&&&",
"&&&&&&&&&&&&&&&&&&&&&&&&&&&&&&&&",
"&&&&&&&&&&&&&&&&&&&&&&&&&&&&&&&&",
"&&&&&&&&&&&&&&&&&&&&&&&&&&&&&&&&"
};
