/* XPM */
static char *result[] = {
/* columns rows colors chars-per-pixel */
"48 48 102 2 ",
"   c #0B0A0A",
".  c #120F0F",
"X  c #130F10",
"o  c #161011",
"O  c #1A1515",
"+  c #1C1718",
"@  c #1E1919",
"#  c #221C1B",
"$  c #26201F",
"%  c #28211F",
"&  c #251F20",
"*  c #252020",
"=  c #2A2322",
"-  c #2E2925",
";  c #2F2D2B",
":  c #322226",
">  c #302A27",
",  c #35232A",
"<  c #3E222C",
"1  c #312B28",
"2  c #382F2E",
"3  c #36312E",
"4  c #39312F",
"5  c #372F33",
"6  c #3B3332",
"7  c #3E3935",
"8  c #3C3939",
"9  c #412A33",
"0  c #4C2D35",
"q  c #413736",
"w  c #423D39",
"e  c #48443F",
"r  c #4F3B44",
"t  c #5B3443",
"y  c #523C42",
"u  c #683D52",
"i  c #4B4742",
"p  c #4D4944",
"a  c #4D4E4E",
"s  c #504C47",
"d  c #564348",
"f  c #5B4449",
"g  c #514D48",
"h  c #4C514E",
"j  c #55524C",
"k  c #524F51",
"l  c #575958",
"z  c #6B4E55",
"x  c #784E5F",
"c  c #7E4662",
"v  c #755461",
"b  c #795060",
"n  c #7D5B6C",
"m  c #6C6B67",
"M  c #79646E",
"N  c #736B6E",
"B  c #786670",
"V  c #814763",
"C  c #874A64",
"Z  c #8C4C67",
"A  c #9C5374",
"S  c #9D587A",
"D  c #A15374",
"F  c #83797C",
"G  c #9A6C87",
"H  c #8A7E83",
"J  c #957788",
"K  c #A66489",
"L  c #B6638C",
"P  c #BF658F",
"I  c #B57696",
"U  c #E17CB6",
"Y  c #838484",
"T  c #8A8687",
"R  c #878A88",
"E  c #8C8A8B",
"W  c #939393",
"Q  c #9B9597",
"!  c #A0989B",
"~  c #BF93B1",
"^  c #A3A0A1",
"/  c #A8A7A8",
"(  c #B0AAAD",
")  c #CD94B5",
"_  c #DF95BC",
"`  c #E08ABC",
"'  c #F884BE",
"]  c #CDA4BB",
"[  c #F381C0",
"{  c #F88AC3",
"}  c #F98CC9",
"|  c #ED92C3",
" . c #FB8FD1",
".. c #E1A1D7",
"X. c #EFA3D4",
"o. c #E6AAD0",
"O. c #F5ACD9",
"+. c #E6B1D4",
"@. c #F7B0DC",
"#. c #ECB4E3",
"$. c #FAB0E0",
"%. c #C9CBCB",
/* pixels */
"q q q               * w 7 &           # 7 w #                     7 *                     7 q q ",
"q 1 * + # = ; ; ; 1 = * * # @ ; ; ; ; = * $ # @ = = ; ; ; ; ; ; ; $ # + ; ; ; = $ * ; ; ; # 1 q ",
"q *   1 3 e j j j j ;     @ > j j j j 3     @ > 8 i j j j j h j j   + 1 j j j w 7 e j j j   # w ",
"  @ 1 w i j j j j w 4 > 8 p j j j h w w w > 6 w j j j e 7 e j e w w w w 8 e 7 w i j j p e 8 =   ",
"  O = 3 8 i j j j > - % 3 w i j j g 3 3 3 1 3 w e p j - 3 4 p e 3 6 3 6 4 2 ; 4 w i j e 3 6 @   ",
"  o # 1 6 e j j g # # # - 3 7 g j i - - - - 3 7 e e s # $ > 7 3 - ; = = = # @ - 3 w s w - - @ . ",
"  o @ 1 3 e j i w # # # # = > w w 6 # O   # = ; w w e # # $ - % @ # O X X X X # = 3 w 3 @   % w ",
"# @ o $ - 6 e e 4 O O O # % > w 7 3 O o o O # = 6 3 3 # O o $ # O O o   X X X O # = ; % O   $ 7 ",
"7 $   X # ; w 6 ; . . X & * ; w 6 = X X X X O # > > > # O . . . . . . . . . .   O # # O X   * q ",
"7 *   X O # ; $   o X     O # ; @ X X o X X X . # $ # . . . . @ > 1 1 > . . . . X o 1 1 1   * q ",
"8 *     . O @ O . o X . X o O # O o o o o   O # % # O . . . O # % 1 1 > # @ . . o O 1 1 1 @ # & ",
"q *   X . . o . o o o .   X X X X o o o o o # 1 > $ o . . . # # # 1 > > 1 # O . O # 1 1 1 1 O   ",
"q *   o . . . . X X O # X X . o O @ o X . # % 1 1 1 > . O # # # # > 2 q q = . # # # 1 3 q q &   ",
"* O   X o O $ # @ X o O # O . . o O X o o # % 1 4 4 4 . O # # # % 2 q q = #   O # = 6 6 q = +   ",
"    o . O # > > ; X X X 1 # o . X o X O # # % > q q q . O # # % > q q w o X X X # 1 q q q X .   ",
"    . X O # # % ; 1 # o X # - ; 1 = X . . > 4 q q - o . . o > 2 q q = X X X . X X . o o O X     ",
"* O   X o O & > 2 6 # o o # = 1 > = o X X 2 6 q = # o . . X # # # : # . # # # # # # o o o . O = ",
"q = o X X X - 1 q 2 = . # # # 1 1 - X X X 4 4 4 o o o o o O X X o o . . 1 > 1 1 1 - O o X   # q ",
"w q q     X . & q o X . # = > q q 4 . o . . . . . O # - > > # O o o o # 1 > 1 1 1 1 > $ .   # q ",
"q q q     X . # = o . . % > 2 q q 4 . . . u K 9 k c K : > > O O o . # # % > 1 > > > > % # . @ % ",
"q q q   . . . . o o o . > 2 q q q 4 X o X _ @.x / ]  .0 = - . O # . o # # = 1 > 1 1 1 > > o .   ",
"q &   X # 1 1 1 > o . . . & q q = o X = l I O.b ^ ) } z a   . . . X O # # # # 1 1 > 1 1 > o     ",
"q *   O # 1 1 > 1 # + . . # = = # o X u H d L v ( A S N n < # # # X o + # # = 4 4 4 4 4 4 . .   ",
"q #   # = > 1 1 1 1 # o o o . o . X + ] I a F W %.! T M o.Z % > > o . . # % 1 q q q q w q O .   ",
"  o # # # # > 1 1 1 # o o # > > # . @ ] | - R d t E W G $.C * 4 q o o o > 2 q q q q q = o   * q ",
"  o # # # = 4 4 2 2 & o o # % > % # o c L m J +.| S W B L , 3 1 = o o o # # & q q 6 = # . * 1 q ",
"  o # # = 1 q q q q & . # # # > > - . 5 Q R ~ O.#.` r E B > q - o o o o o X X q q 4 X .   7 q q ",
"    X ; 4 q q q q o o . o # > q q 4 o 8 Y V #.X.O...U f Y O X . . . # > 2 # O . o o . . X   & 7 ",
"& O   @ 1 q q 2 & # o X . & 2 q 1 & o O = P } { { ' [ y ; X X o o # = > 1 = # X X o # # # @ # $ ",
"q &   . & 4 4 & . # o o X & 4 2 # o . # % : A D D D t O X X . O # - > > 1 1 1 X o o > > > 1 @   ",
"q &   . . . o o . X o o o o o o . . # # # > $ = % % % . o o . O # # = > 1 1 1 X o # # & > q &   ",
"q 1 # . . . . + # # # # o o o o . . # # # % - 1 4 4 2 o o X O O # % > 2 2 > # O O # & > 2 > O   ",
"q q 7   . . . # > > > > . o # o X o # # # # = > q q q o X o # # # > 2 q q : o # o o > 2 q o .   ",
"q &   X o o > 1 > > 1 1 1 $ o . X X # # # > 2 q q q q o . . # # > q q q o o o . . . o . .   # q ",
"q &   . o @ % : > > > 1 1 % $ . X X o # # 4 q q q 2 & o . . O % 2 q 2 = o X o # # # # # X   # q ",
"q &   . O # # % > > 1 > 1 > > o X X X # > q q q q & . o O X . % q q = o o o o 1 > > 1 % O   = q ",
"    . # # # # # > 1 1 > 1 1 > o + # . . X q q q q = o . # # o o o o . X . o # 1 1 > > 1 >   # q ",
"  X O # # # # # % 1 1 1 1 1 > o o O . . X & = & & # X X # # # # # # # o . # # # = = 1 1 > @ # = ",
"  o # # # # # # $ > > > > > > o X . X X X X . X o X X . # > 1 > 1 1 # o . o # # # # 1 1 1 1 @   ",
"  o # # # # # # > q q q q q q . O # 1 1 1 X o o o + # # # : 1 1 1 1 1 1 X X o # # # 1 2 7 7 *   ",
"  . o # # # = > 4 q q q q 2 % . O @ * - > # O O o o # # # = 1 1 1 > 1 1 o X X # # - 5 6 q q #   ",
"o o   # # # 1 2 q q q q 4 % o o O @ # = 1 1 # . o o # # # # 1 1 1 1 > = X X   @ = 1 q q q q =   ",
"7 *   # # # 1 4 q q q q o o . . X o 1 2 w q = . # # # # - 1 q q q q = o X X . X = q q q q q &   ",
"7 *   O # % 2 6 q q 2 % o . .     X # > q q = . # # # = > 2 q q q q = . . . . X # > q q q - O   ",
"q &   X # ; 8 q q q = . . . .       . & 6 w =   # # # : 2 q q q q q = o     X X . # q q q o .   ",
"q q 7     o q q q . .         q q 5     X o     . # > q q 7 q q q       q &       X o X X   & q ",
"q q 7 & O X * # # . O * % % # q q 6 & O   . O $   o @ $ & & & & & & # = q 1 & # + .   . . & 1 q ",
"q q q q $           # q w q q q q q q =     $ w                   q q q q q q q #         q q q "
};
