/* XPM */
static char *afa27c1f8e424965c6f0d9c9a8d2c07buIsb8mqvZSKkom44[] = {
/* columns rows colors chars-per-pixel */
"48 48 90 1 ",
"  c #000000",
". c #0F0000",
"X c #0C0E09",
"o c #100000",
"O c #171C12",
"+ c #191D13",
"@ c #2F0B07",
"# c #320B07",
"$ c #491F16",
"% c #4A2017",
"& c #4D2F25",
"* c #D76B3C",
"= c #DF6A3E",
"- c #E06C37",
"; c #E7673C",
": c #E46A3B",
"> c #C76B45",
", c #D36941",
"< c #DC6C40",
"1 c #DD7145",
"2 c #DC704A",
"3 c #E26E46",
"4 c #6CA13C",
"5 c #70A63D",
"6 c #74AD3E",
"7 c #7BB23B",
"8 c #6B9F45",
"9 c #6E9F50",
"0 c #6DA143",
"q c #6CA14A",
"w c #70A646",
"e c #7AA341",
"r c #77AD44",
"t c #74A74B",
"y c #77B043",
"u c #7CB443",
"i c #84B43E",
"p c #86B83F",
"a c #8CC63E",
"s c #8DC93D",
"d c #90C83E",
"f c #84BB42",
"g c #EC835C",
"h c #ED885F",
"j c #CE896C",
"k c #D1896E",
"l c #DF8C6E",
"z c #EE8760",
"x c #EE8961",
"c c #E58D6A",
"v c #EA8C6A",
"b c #F08762",
"n c #F08A64",
"m c #8FC642",
"M c #8EC842",
"N c #8DC64A",
"B c #8DC84A",
"V c #90C743",
"C c #90C841",
"Z c #90C64B",
"A c #8BC452",
"S c #EDB59A",
"D c #EEBEA7",
"F c #EBBFAE",
"G c #F9CFBA",
"H c #F9D0B6",
"J c #F8D0B9",
"K c #E7D5C7",
"L c #E8D5C7",
"P c #E6D7C8",
"I c #E7D5CC",
"U c #E8D6C8",
"Y c #E9D5CC",
"T c #F3E1D3",
"R c #F7E5D7",
"E c #F8E5D3",
"W c #F6E7DB",
"Q c #F6E7DD",
"! c #F9E7D8",
"~ c #F9E7D9",
"^ c #F8E6DB",
"/ c #F6E8DB",
"( c #F6E8DD",
") c #FAEBDF",
"_ c #FAECE1",
"` c #FAEBE4",
"' c #FBEEE5",
"] c #FCEFE6",
"[ c #FAF0E7",
"{ c #FBF1E8",
/* pixels */
"mmmmmVVVmmmmmmmmmmmVVmmmmmmmVVVVmmmmmmmmVVVVmmmm",
"mmmmmVVVmmmmmmmmsBssmmmmmmmmVVVVmmmmmmmmVVVVMAmm",
"mmmmma4VmmmmmmmmsmmmmmmmmmmmVVVVmmmmmmmmVVVVMmmm",
"mmmVmqNtMmmmmmVVVVVVVVmmmmmVVVVVmmmmmmVVVVVVMVmm",
"VVVVVVmmVVVVVVVVVVVVVmVVVVVVVVVVVVVMusVVVVVVVVVV",
"VVVVVVVVVVVVVVVVVVVV004VVVVVmVVVVVVum6VVVVVVVVVV",
"VVVVVVVVVVVVVVVVVVVVMMMVVVMMmmVVVVVVVVVVVVVVVVVV",
"VVVVVVVVVVVVV                      VVVVVVVVVVVVV",
"mmmmMVVVVmmmM                      mmmVVVVVVVVmm",
"mmsNsCVVmmmm7                      mmmmmVVVVVmmm",
"mmmmmVVVmmmmm                      mmmmmVVVMmmmm",
"mmmmmVVVmm   vvvvvv:::nvvx:::vvv:::   mmVVmmaamm",
"mmmmVuqumm   vvvvvv:::xvvx:::vvv:::   mmVVMmmmmm",
"mmmmVfmfmm   vvvvvv:::xvvn:::vvv:::   mmVVVVVmmm",
"mmmVmVpiii###hxxxxx133gxzg333xxx233##@iiifVVVmmm",
"mmmVVV+  o:::::::::vvv<:::vvv:::vvv:::.  XVVVVmm",
"VVVVVV+  o:::::::::vvv<::=vvv:::vvv:::.  XVVVVVV",
"VVVVVV+  o:::::::::vvv<::=vvv:::vvv:::.  XVVVVVV",
"VVs   jvvvcccccc::::;;GLKKUUPLLLPUU:::bvvl   VVV",
"VVN   kvvvvvvvvv::::::JPKPUUUPPPLUU:::xvvl   VVV",
"VVV   kvvvvvvvvv-:::::GUUUUUUUUUUUU:::vvvc   VVV",
"mmm   kvvvvvvvvv::::::HKKKPUUKKKPPP:::nvvc   Vmm",
"mmm   >:::::::::cvvPPUE~~Q[[[~~~{[[~~~,::,   mmm",
"mmm   >:::::::::vvvYUUR~~/[[[~~~[[[~~~,::*   mmm",
"mmm   >:::::::::vvvIUUR~~/[[[~~~[[[~~~,::*   mmm",
"mmmeee&%%%SSSSSSFDDTTT)___(((___(((__`$%%%   mmm",
"mmmmmV+   UUUUUUUUU~~~_[['~~~[[[~~~'[[       mmm",
"mmmVVV+   UUUUUUUUU~~~_[['~~~[[[~~~'[[       4mm",
"VVVVVV+   UUULUUUUU~~~_[''~~~[[[~~~]]]       ZVV",
"VVVVVM+   ~~~'''~~~]''W~~W'''~~~'''      XVVVVVV",
"VVVVMM+   ~~~[[[~~~[[[W~~/[[[~~~[[[      XVVVVVV",
"VVVVVmO   ~~~[[[~~~[[[W~~/[[[~~~[[[      XVVVVVV",
"mmmmVVO   ~~~{{{~~~{{{~~~({{{~~~{{{      XVVVmmm",
"mmmmmVVVmm                            amVVVVVmmm",
"mmmmmVVVmm                            yVVVVVVmmm",
"mmmmmVVVmm                            mmMVVVVmmm",
"mmmmmVVVmmmmmmmVVVVmmmmmm4fqmVVVmmmmmmmmVVVVVmmm",
"mmmVrMVVmmmmmmmVVVVmmmmmmmmCVVVVmmmmmmmmVVVVVmmm",
"mmm8f9VVmmmmmmmVVVVVmmmmmmmVVVVVmmmmmmmmVVVVVmmm",
"mmmVVMVVVmmmmmmVVVVVVVmmmmmVVVVVmmmmmmmVVVVMwmmm",
"VVVVVVVVVVVVVMsfVVVVVVVVVVVVVVVVVVVVVVVVVVVqM8VV",
"VVVVVVVVVVVVVMfmmVVVVVVVVVVVVVVVVVVVVVVCVVVmVVMV",
"VVVVVVVVVVVVVVVVVVVVVVVVVVVmMVVVVVVVVVVdVVVVVVVV",
"VVVVVVVmNMVVVVVVVVVVVVVVVVsBamVVVVVVVVrwqmVVVVVV",
"mmmVVVVt45mmmmVVVVVVVVmmmmVMMVVVVmmmmVVmmVVVVVmm",
"mmmVmVVCmmmmmmmVVVVVVVmmmmmVVVVVmmmmmmmmVVVVVVmm",
"mmmmmVVVmmmmmmmVVVVmmmmmmmmmVVVVmmmmmmmmVVVVVmmm",
"mmmmmVVVmmmmmmmVVVVmmmmmmmmmVVVVmmmmmmmmVVVVVmmm"
};
