/* XPM */
static char *result[] = {
/* columns rows colors chars-per-pixel */
"48 48 185 2 ",
"   c #105E30",
".  c #115F32",
"X  c #115F33",
"o  c #106130",
"O  c #116133",
"+  c #116233",
"@  c #166133",
"#  c #176531",
"$  c #176631",
"%  c #116234",
"&  c #116334",
"*  c #116434",
"=  c #186432",
"-  c #196433",
";  c #136C39",
":  c #136D39",
">  c #14733D",
",  c #14743D",
"<  c #15743D",
"1  c #15773F",
"2  c #15783F",
"3  c #307934",
"4  c #317A35",
"5  c #357E35",
"6  c #367D37",
"7  c #775029",
"8  c #707937",
"9  c #737B38",
"0  c #157940",
"q  c #167E43",
"w  c #167F43",
"e  c #7B7360",
"r  c #4A8E36",
"t  c #45893B",
"y  c #4A8C39",
"u  c #4C9037",
"i  c #4E9336",
"p  c #4E9138",
"a  c #4E9239",
"s  c #4F9239",
"d  c #4E923A",
"f  c #4F923A",
"g  c #5C9E3B",
"h  c #5C9C3C",
"j  c #5D9E3C",
"k  c #609F3B",
"l  c #61A03B",
"z  c #69A03E",
"x  c #6CA13C",
"c  c #68A73D",
"v  c #6CA83C",
"b  c #6CAA3C",
"n  c #74AD3E",
"m  c #178044",
"M  c #178345",
"N  c #178446",
"B  c #188044",
"V  c #188045",
"C  c #188446",
"Z  c #188546",
"A  c #188547",
"S  c #188647",
"D  c #188747",
"F  c #188948",
"G  c #198948",
"H  c #198949",
"J  c #198A49",
"K  c #1A8E4B",
"L  c #1A8F4B",
"P  c #1A8F4C",
"I  c #1A904C",
"U  c #1B914D",
"Y  c #248044",
"T  c #28874D",
"R  c #2B884E",
"E  c #2E8950",
"W  c #5A8044",
"Q  c #5D8044",
"!  c #6C9F43",
"~  c #6A9E47",
"^  c #6E9F50",
"/  c #6DA141",
"(  c #6CA144",
")  c #6AA148",
"_  c #6CA148",
"`  c #6DA248",
"'  c #6CA14A",
"]  c #6EA34B",
"[  c #6CA04D",
"{  c #70A544",
"}  c #77AD41",
"|  c #74A74A",
" . c #7AB140",
".. c #7AB243",
"X. c #7FB643",
"o. c #6DA573",
"O. c #74A876",
"+. c #78A979",
"@. c #828A34",
"#. c #828B34",
"$. c #828B35",
"%. c #828D35",
"&. c #859134",
"*. c #859036",
"=. c #849438",
"-. c #82BD3F",
";. c #84BE3F",
":. c #8DC53F",
">. c #8DC73E",
",. c #8CC73F",
"<. c #8BC93A",
"1. c #8DC83C",
"2. c #8DC83E",
"3. c #8DC83F",
"4. c #8EC93E",
"5. c #849B50",
"6. c #849C50",
"7. c #B68044",
"8. c #BB8044",
"9. c #81BB41",
"0. c #83BC41",
"q. c #84BE41",
"w. c #87BF41",
"e. c #82B946",
"r. c #8BC741",
"t. c #8DC640",
"y. c #8DC740",
"u. c #8DC741",
"i. c #8EC640",
"p. c #8FC640",
"a. c #8EC740",
"s. c #8EC641",
"d. c #8EC542",
"f. c #8CC642",
"g. c #8DC642",
"h. c #8DC742",
"j. c #8DC743",
"k. c #8EC642",
"l. c #8FC642",
"z. c #8EC742",
"x. c #8FC742",
"c. c #8EC743",
"v. c #8FC743",
"b. c #8BC746",
"n. c #8DC544",
"m. c #8DC744",
"M. c #8FC644",
"N. c #8DC446",
"B. c #8DC746",
"V. c #8FC746",
"C. c #8BC842",
"Z. c #8DC841",
"A. c #8EC840",
"S. c #8FC840",
"D. c #8EC841",
"F. c #8EC941",
"G. c #8DC943",
"H. c #8EC842",
"J. c #8EC942",
"K. c #8EC843",
"L. c #8EC845",
"P. c #8FC946",
"I. c #8BC54B",
"U. c #8DC64A",
"Y. c #8FC64A",
"T. c #8EC74A",
"R. c #8EC74C",
"E. c #90C741",
"W. c #90C742",
"Q. c #90C743",
"!. c #90C745",
"~. c #90C841",
"^. c #90C64B",
"/. c #8BC452",
"(. c #CBBE9D",
"). c #B4C499",
"_. c #BBC79D",
"`. c #BFC89F",
"'. c #C0C9A0",
"]. c #E0D1AE",
"[. c #E3D8B3",
"{. c #E6D9B4",
"}. c #E9DAB6",
"|. c #EADBB7",
" X c #ECDCB8",
/* pixels */
"l.l.l.l.l.Q.Q.Q.l.l.l.l.l.l.l.l.l.t.p.Q.Q.l.l.l.l.l.l.l.Q.Q.Q.Q.l.l.l.l.l.l.l.l.Q.Q.Q.Q.l.l.l.l.",
"l.l.l.l.l.Q.Q.Q.l.l.l.l.l.l.l.l.4.b.<.1.k.l.l.b v l.l.l.Q.Q.Q.Q.l.l.l.l.l.l.l.l.Q.Q.Q.Q.A./.N.l.",
"l.l.l.l.l.>.z E.l.l.l.l.l.l.l.l.1.h.h.m.s.q.= . . = ;.l.Q.Q.Q.Q.l.l.l.l.l.l.l.l.Q.Q.Q.Q.r.h.n.y.",
"l.l.l.Q.l._ R.| K.l.l.l.l.l.Q.Q.Q.Q.Q.Q.4   . A 2 .   3 Q.Q.Q.Q.l.l.l.l.x.l.Q.Q.Q.Q.Q.Q.D.Q.l.l.",
"Q.Q.Q.Q.Q.Q.l.M.Q.Q.Q.Q.Q.Q.Q.Q.Q.Q.l X . , U U m m : . X g Q.Q.Q.Q.Q.S. .2.Q.Q.Q.Q.Q.Q.Q.Q.Q.Q.",
"Q.Q.Q.Q.Q.Q.Q.Q.Q.Q.Q.Q.Q.Q.Q.Q.w.$ . * U U U U m m m m + . # w.Q.Q.Q.X.V.n Q.Q.Q.Q.Q.Q.Q.Q.Q.Q.",
"Q.Q.Q.Q.Q.Q.Q.Q.Q.Q.Q.Q.Q.Q.Q.5 . . Z U U U U U m m m m m 0 . . 4 Q.Q.Q.Q.Q.Q.Q.Q.Q.Q.Q.Q.Q.Q.Q.",
"Q.Q.Q.Q.Q.Q.Q.Q.Q.Q.Q.Q.Q.j . . < U U U U U U U m m m m m m m : . . j Q.Q.Q.Q.Q.Q.Q.Q.Q.Q.Q.Q.Q.",
"l.l.l.x.D.Q.Q.Q.Q.l.l.0.- . & K U U U U U U U U m m m m m m m m w + . @ -.l.Q.Q.Q.Q.Q.Q.Q.Q.l.l.",
"l.l.1.T.3.~.Q.Q.l.l.6 . . C U U U U U U U U U U m m m m m m m m m m 1 . . 6 l.l.Q.Q.Q.Q.Q.l.l.l.",
"l.l.h.h.h.Q.Q.Q.k X . > I U U U U U U U U U U U m m m m m m m m m m m w ; . o h Q.Q.Q.F.x.l.l.l.",
"l.l.l.l.l.Q.!.c . % P U U U U U U U U U U U U U m m m m m m m m m m m m m q O . c Q.i.m.,.>.l.l.",
"l.l.l.l.Q...[ t . U U U U U U U U U U U U U U U m m m m m m m m m m m m m m m . s Q.F.a.u.a.l.l.",
"l.l.l.l.Q.e.y.y . U U U U U U U U U U U U U U U m m m m m m m m m m m m m m m . s Q.Q.Q.Q.l.l.l.",
"l.l.l.Q.l.Q.Q.s . U U U U U U U U U U U U U U U m m m m m m m m m m m m m m m . s Q.Q.Q.Q.l.l.l.",
"l.l.l.Q.Q.Q.Q.s . U U U U U J U U U U U U U U U m m m m m m m m m m m m m m m . s Q.Q.Q.Q.Q.l.l.",
"Q.Q.Q.Q.Q.Q.Q.s . U U U U G m U U U U U U U U U m m m m m m m m m m m m m m m . s Q.Q.Q.Q.Q.Q.Q.",
"Q.Q.Q.W.Q.Q.Q.s . U U U J m m U U U U U U U U U m m m m m m m m m m m m m m m . s Q.Q.Q.Q.Q.Q.Q.",
"Q.Q.3.B.l.Q.Q.s . U U U m m S U U J U U U U U U m m m m m m m m m m m m m m m . s G.] H.Q.Q.Q.Q.",
"Q.W.I.g.j.Q.Q.s . U U U m D U U G m U U U U U U m m m m m m m m m m m m m m m . s ` U./ v.Q.Q.Q.",
"Q.Q.Q.l.x.Q.Q.s . U U U S U U J m m U U U U U U m m m m m m m m m m m m m m m . s v.x.v.v.Q.Q.Q.",
"l.l.l.Q.l.Q.Q.s . U U U U U U m m S U U U U U U m m m m m m m m m m m m m m m . s Q.Q.Q.Q.Q.l.l.",
"l.l.l.l.l.Q.Q.s . U U U U U U m D U U U U U U U m m m m m m m m m m m m m m m . s Q.Q.Q.Q.l.l.l.",
"l.l.l.l.l.Q.:.p . U U U U U U S U U U U U U U U m m m m m m m m m m m m m m m . s Q.Q.Q.Q.l.l.l.",
"l.l.l.l.l.D.1.r . U U U U U U U U U U U U U U M m m m m m m m m m m m m m m m . s Q.Q.Q.Q.l.l.l.",
"l.l.l.l.l.~.F.s . U U U U U U U U U U U U F m m m m m m m m m m m m m m m m m . s Q.Q.Q.Q.l.l.l.",
"l.l.l.l.l.Q.Q.s . U U U U U U U U U U K m m m m m m m m m m m m m m m m m m m . s Q.Q.x.C.y.l.l.",
"l.l.l.Q.Q.Q.Q.s . U U U U U U U U I M m m m m `.'.m m m m m m m m m m m m m m . s Q.Q.( ) x l.l.",
"Q.Q.Q.Q.Q.Q.Q.s . U U U U U U U G m m m m O. X X X X+.m m m m m m m m m m m m . f Q.Q.Y.J.^.Q.Q.",
"Q.Q.Q.Q.Q.K.K.a . U U U U U L m m m m E  X X X X X X X XE m m m m m m m m m m . u j.Q.Q.Q.Q.Q.Q.",
"Q.Q.Q.Q.K.Z.F.i . U U U U N m m m B _. X X X X X X X X X X'.V m m m m m m m m . a !.Q.Q.Q.Q.Q.Q.",
"Q.Q.Q.Q.Q.f.K.d . U U H m m m m o. X X X X X X X X X X X X X Xo.m m m m m m m . s Q.Q.Q.Q.Q.Q.Q.",
"l.l.l.l.Q.Q.Q.s . P m m m m T [. X X X X X X X X X X X X X X X X{.R m m m m m . s Q.Q.Q.Q.l.l.l.",
"l.l.l.l.l.Q.Q.s . m m m m ). X X X X X X X X X X X X X X X X X X X X).m m m m . s Q.Q.Q.Q.l.l.l.",
"l.l.l.l.l.Q.Q.s . m m W }. X X X X X X X X X X X X X X X X X X X X X X|.Q m m . s Q.Q.Q.Q.l.l.l.",
"l.l.l.l.l.Q.Q.s . Y 7.8. X X X X X X X X X X X X X X X X X X X X X X X X8.7.Y . a Q.Q.Q.Q.l.l.l.",
"l.l.l.l.l.Q.Q.#.7 8.8.8. X X X8.8.8.8.8.8. X X X(.(.(.(.(.(.(.(.(. X X X8.8.8.7 #.Q.Q.Q.Q.l.l.l.",
"l.l.l.Q.} F.Q.#.7 8.8.8. X X X8.8.8.8.8.8. X X X(.(.(.(.(.(.(.(.(. X X X8.8.8.7 #.Q.Q.Q.Q.l.l.l.",
"l.l.l.~ 9.^ Q.#.7 8.8.8. X X X8.8.8.8.8.8. X X X(.(.(.(.(.(.(.(.(. X X X8.8.8.7 #.Q.Q.Q.Q.l.l.l.",
"l.l.l.Q.Q.P.Q.#.7 8.8.8. X X X8.8.8.8.8.8. X X X(.(.(.(.(.(.(.(.(. X X X8.8.8.7 #.Q.Q.D.{ d.l.l.",
"Q.Q.Q.Q.Q.Q.Q.#.7 8.8.8. X X X8.8.8.8.8.8. X X X(.(.(.(.(.(.(.(.(. X X X8.8.8.7 #.Q.Q.' L.! Q.Q.",
"Q.Q.Q.Q.Q.Q.Q.#.7 8.8.8. X X X8.8.8.8.8.8. X X X(.(.(.(.(.(.(.(.(. X X X8.8.8.7 #.Q.Q.c.Q.Q.K.Q.",
"Q.Q.Q.Q.Q.Q.Q.#.7 8.8.8.].].].8.8.8.8.8.8.].].].].].].].].].].].].].].].8.8.8.7 #.Q.Q.Q.Q.Q.Q.Q.",
"Q.Q.Q.Q.Q.Q.Q.$.7 8.8.8.].].].8.8.8.8.8.8.].].].].].].].].].].].].].].].8.8.8.7 8 z.Q.Q.Q.Q.Q.Q.",
"l.l.l.Q.Q.Q.Q.9 7 8.8.8.].].].8.8.8.8.8.8.].].].].].].].].].].].].].].].8.8.8.7 #.Q.Q.Q.Q.Q.l.l.",
"l.l.l.Q.l.Q.Q.=.7 7 7 7 e e e e e e e e e e e e e e e e e e e e e e e e 7 7 7 7 *.Q.Q.Q.Q.Q.l.l.",
"l.l.l.l.l.Q.Q.Q.&.@.@.@.5.5.5.6.6.6.6.5.5.5.5.5.5.5.5.5.6.6.6.6.5.5.5.5.@.@.@.%.Q.Q.Q.Q.Q.l.l.l.",
"l.l.l.l.l.Q.Q.Q.l.l.l.l.l.l.l.Q.Q.Q.Q.l.l.l.l.l.l.l.l.l.Q.Q.Q.Q.l.l.l.l.l.l.l.l.Q.Q.Q.Q.Q.l.l.l."
};
