/* XPM */
static char *result[] = {
/* columns rows colors chars-per-pixel */
"32 32 18 1 ",
"  c #0A2138",
". c #3E2E35",
"X c #3B3733",
"o c #483034",
"O c #644438",
"+ c #784C39",
"@ c #64793D",
"# c #162F51",
"$ c #494545",
"% c #5D554E",
"& c #72746D",
"* c #A76D4D",
"= c #6F8743",
"- c #828F4C",
"; c #8A8A7B",
": c #A09984",
"> c #A3A69A",
", c #C9C8B2",
/* pixels */
"--------------------------------",
"--------------------------------",
"--------------------------------",
"--------------------------------",
"--------------------------------",
"--------------------------------",
"-------@%**%%%%%%%$$$**%@-------",
"-------%:++X$$$$$$$$X++:%-------",
"-------%:++#X#X#X#X#X++:@-------",
"-------@.;,,********,,;o@-------",
"-------::,,;++++++++;,,::@------",
"------=::O+##########+O::@------",
"------=@#+O # # # # #O+X%@------",
"-------= O+# # # # # +OX%-------",
"------@@.&>>O******O>>&.@=------",
"------@%.>&&OOOOOOOO&&>.@=------",
"------@%XOO          OOX=-------",
"-------::.O          O.::@------",
"------=::..::      ::..::@------",
"------=%%X-::XXXXXX=@@X%@-------",
"-------=%%@@%%%%%%%%=@@@--------",
"--------=@@-------==------------",
"--------------------------------",
"--------------------------------",
"--------------------------------",
"--------------------------------",
"--------------------------------",
"--------------------------------",
"--------------------------------",
"--------------------------------",
"--------------------------------",
"--------------------------------"
};
