/* XPM */
static char *dda00780cd074e85d640d60ed44d2cc5lWC6H0vFQUnPc8TZ[] = {
/* columns rows colors chars-per-pixel */
"16 16 3 1 ",
"  c #FEC99C",
". c #CF8254",
"X c #EAA56C",
/* pixels */
"XXXXXXXXXXXXXXXX",
"XXXXXXXXXXXXXXXX",
"X  XXXXXXXXXXXXX",
"X  XXX.XXXXXXXXX",
"XXXXXXXXXXXXXXXX",
"XXX.XXXXXXXXXXXX",
"XXXXXX..XXXXXXXX",
"XXXXXX..XXXXXXXX",
"XXXXXXXXXXXXXXXX",
"XXXXXXXXXXXXXXXX",
"XXXXXXXXXXXXXXXX",
"XXXXXXXXXXXX.XXX",
"XXXXXXXXXXXXXXXX",
"XXXXXXXXX XXXXXX",
"XXXXXXXXXXXXX XX",
"XXXXXXXXXXXXXXXX"
};
