/* XPM */
static char *result[] = {
/* columns rows colors chars-per-pixel */
"48 48 29 1 ",
"  c #0B0A0B",
". c #120F0F",
"X c #130F10",
"o c #161011",
"O c #1A1515",
"+ c #1E1919",
"@ c #221C1B",
"# c #26201F",
"$ c #28211F",
"% c #251F20",
"& c #252120",
"* c #2A2322",
"= c #2E2825",
"- c #2F2E2B",
"; c #302A27",
": c #312B28",
"> c #36312E",
", c #39312F",
"< c #3B3331",
"1 c #3E3935",
"2 c #413736",
"3 c #423D39",
"4 c #48443F",
"5 c #4B4742",
"6 c #4D4944",
"7 c #504C47",
"8 c #514E48",
"9 c #55524C",
"0 c None",
/* pixels */
"000       0000      000          00          000",
"000+@*----&00O+----& 0O+&=-------0O+---&&&---000",
"00 :>49999-  +=9999>  +-359999999 +:999433999 00",
" +=3599993,;359998334=<39991339611411411599641* ",
" O*>15999:=$<15998>>>:<3489=-153><>><:=>3694><# ",
" o@:<4986@@@=>1885====>1448@*=1>====*&+=>383=*+ ",
" o+->4964+@@@*:331+OX+*:143@#+=*++O XXX+*-1-@ 00",
" .O@=<54<OOO+*:31>OoXO+*<><++O#++OoXXXXO@=>*+ 00",
"0. X@-4<-X X+*-3>*XXXXO@=::@o.........XXO@@OX 00",
"00 XO@=@XX XXO+=+XXoXXX.+#@....+;;::...XXo:;: 00",
"00  oO#OXXoXXoO@Ooooo O@$+O.o.O@*;::@Oo.o+:::+O0",
"00 X ...oooX XXXXooooo@::#o...@@@;:::@o.O@::;:+ ",
"00 .o...o O@XX.oO+XX.@$::::.O@@@@;,22*.+@@:,22@ ",
"0  .oO+#@ooO@O..OOXoO@$:,,,.O@@#*,<2*+.O+*<<2*+ ",
"  o.O#=:-o.X:@o.XoXO@@$:222.O@@#:222ooX.@:222o  ",
"  .oO+@$--@X.@=-:*X..:,22*...o;>22*X...Xo.ooX.. ",
"0. XoO%=,2@.@@%;:*oX.,22@@o..o@@@*@.@@@@@@XX...0",
"00 .Xo*;2,%.@@@;:=XX 2:2ooOOoo.ooooo:;:::=Oo. 00",
"000 XXX%2.o.@@=22,..ooo..@:::=@@o.o@;::::::@. 00",
"000  X.@*.oo%;,22<....oo@@:::=ooO.O@*=:::::=@..0",
"000 ...oooo.=,222,ooo.@@:::::*o@@.O@@*:::;:=:o  ",
"00 .@:;;;oo.X%22*ooo.@@@@@;2%oo..XO@@@@::::::o  ",
"00 O%;;:;@Ooo@*%@.Xoo@@*$:22@o@@@XoO@@*<,,,,,o. ",
"00 @*:::;;@oooooXo.O@@@::,22%o::;oX.@*:222222o. ",
" o@@@@::;;@oo@;;@oo..,,22*o.O@:,2ooo:,22222=o 00",
" o@@@*,<,,%oO@$;%@o..@@%%@X.@*,:*ooo@@%22<*+.000",
" o@@*:2222%X@@@;:=ooooo.Xoo.@;2=oooXOoX22,o. 000",
"   :,2222ooX.@=22,o..o@::@o@o.o...@::@oXoX..X  0",
"0  +:22,$OOoo@:2:%o@@@*::%@ooXXoo@*::=@oXo@@@+O ",
"00 .#,,%oOOoX@,2@o.@;::::::ooo.O@*;::::XXO==;:+ ",
"00 .o.oXXooooooo..@@@::::::ooo.o@@*::::Xo@@*:2@ ",
"00 ..XXO+@@@ooO...@@@**:,,,oooo@@*::,=@oO@%=,*+ ",
"000 ...@;;;;.O@.Xo@@@@*:222ooo@@@:,22@o@oo=,2o  ",
"00 ..O::;;:::@o.XX@@@:,2222oXX@@:222ooooooooo 00",
"00 .oO**;;:::$@oXXO@@,222,%oXXO%,2:*ooo@@@@@o 00",
"00 .O@@$;;:::::ooX @:2222%.oooX%22=oo.o::::@o 00",
"  .@@@@$;::;:::.O@XXX2222%o.O@oooooo.o@:::::: 00",
" .O@@@@@$:::::;ooOXXX*%*%@o.@@@@@@@ooO@%**=::@O0",
" o@@@@@@@:::;;:oXXXXXXXXoo..@:::;;@ooo@@@@::::+ ",
" o@@@@@@;222222.O@:=:XoooO@@@:::;:::o..@@@:,12@ ",
" XO+@@*=,2222,*oO+*==@+X.O@@%*::::::oX.@@=<<22% ",
"   @@@:,2222,@o.O+@*::@X.O@@@@::::;*XX +*:2222% ",
"00 @@@:,2222o...Xo:>22=.@@@@*:2222*oXX.X*22221% ",
"00 O@*,<22:=.... X@=22*.@@@*:,2222*.....@:222=O ",
"00 X+:1222*....   X%22*X@@@*,12222*.  ..XO222o. ",
"000 Xo222..    000  .X  .@:221222   00  ..oXX 00",
"000X X&@@. 00000000    0 o@@%%%&*000000  . ..000",
"0000      0000000000  00         0000000     000"
};
