/* XPM */
static char *result[] = {
/* columns rows colors chars-per-pixel */
"16 16 5 1 ",
"  c #C0CBDC",
". c #BD6C4A",
"X c #52607C",
"o c #8B9BB4",
"O c #262B44",
/* pixels */
"XXOOOOOOOOOOOOXX",
"oOOOOOOOOOOOOOOo",
"OOOooooXXooooOOO",
"OOoXoooXXoooXoOO",
"OOooOOOOOOOOooOO",
"OOooOOOOOOOOooOO",
"OO  OOOOOOOO  OO",
"OXXXOOOOOOOOXXXO",
"OXXXOOOOOOOOXXXO",
"OOooOOOOOOOOooOO",
"OOooOOOOOOOOooOO",
"OO  OOOOOOOO  OO",
"OXXXOO.OO.OOXXXO",
"OXXXO.O..O.OXXXO",
"OOooOO....OOooOO",
"OOooO......OooOO"
};
