/* XPM */
static char *result[] = {
/* columns rows colors chars-per-pixel */
"16 16 9 1 ",
"  c #3F2631",
". c #763B36",
"X c #262B44",
"o c #BD6C4A",
"O c #25956A",
"+ c #E19A65",
"@ c #43E1B3",
"# c #F7C282",
"$ c None",
/* pixels */
"$$$$$$     $$$$$",
"$$$$        $$$$",
"$$$    ooo   $$$",
"$$   .oooo.   $$",
"$$  .oooooo.  $$",
"$$  OOO@@@OO  $$",
"$$  o##+++##  $$",
"$$  ##X###X#  $$",
"$$  +#X###X+  $$",
"$$   +#...+o  $$",
"$   O...o..O   $",
"   oOO    OOo   ",
"  o+oOooOOOo+o  ",
"  oo OOOooO oo  ",
"     ..  ..     ",
"$    oo  oo    $"
};
