/* XPM */
static char *result[] = {
/* columns rows colors chars-per-pixel */
"48 48 167 2 ",
"   c #020101",
".  c #080706",
"X  c #070709",
"o  c #090708",
"O  c #070808",
"+  c #0B0A0B",
"@  c #120E0E",
"#  c #14100F",
"$  c #0E0E11",
"%  c #110E10",
"&  c #0F1012",
"*  c #151112",
"=  c #1A1515",
"-  c #1D1B15",
";  c #17191A",
":  c #1D1A19",
">  c #221C1B",
",  c #222316",
"<  c #25221C",
"1  c #28211F",
"2  c #251F20",
"3  c #1F2122",
"4  c #252222",
"5  c #2A2422",
"6  c #2E2825",
"7  c #262728",
"8  c #272A2C",
"9  c #2E2E2C",
"0  c #302A27",
"q  c #322B29",
"w  c #36332E",
"e  c #38322F",
"r  c #292C30",
"t  c #2C3033",
"y  c #333536",
"u  c #3B3431",
"i  c #3D3A35",
"p  c #36393B",
"a  c #3A3B3B",
"s  c #413736",
"d  c #423D39",
"f  c #48443F",
"g  c #3A3F42",
"h  c #3D4243",
"j  c #3F484C",
"k  c #404647",
"l  c #4B4742",
"z  c #444840",
"x  c #4D4944",
"c  c #414348",
"v  c #454B4D",
"b  c #484B4D",
"n  c #504C47",
"m  c #514E48",
"M  c #55524C",
"N  c #4D5152",
"B  c #525750",
"V  c #53555B",
"C  c #54595C",
"Z  c #5A5E5C",
"A  c #555B53",
"S  c #5C605D",
"D  c #535C60",
"F  c #5A5F66",
"G  c #5C666B",
"H  c #5E686D",
"J  c #5F6464",
"K  c #5F6871",
"L  c #626666",
"P  c #616861",
"I  c #64696B",
"U  c #696E6E",
"Y  c #6A726D",
"T  c #676F78",
"R  c #646E74",
"E  c #677177",
"W  c #6E7374",
"Q  c #6A757B",
"!  c #717677",
"~  c #737778",
"^  c #757A7B",
"/  c #797D7E",
"(  c #904557",
")  c #934A5C",
"_  c #9F6474",
"`  c #877E76",
"'  c #A16978",
"]  c #A08D7D",
"[  c #6E7781",
"{  c #737D87",
"}  c #7A7F81",
"|  c #778087",
" . c #7B8183",
".. c #79848B",
"X. c #7D888C",
"o. c #7B8690",
"O. c #818281",
"+. c #808788",
"@. c #82898A",
"#. c #86918D",
"$. c #848F9A",
"%. c #838E94",
"&. c #8C9496",
"*. c #86939C",
"=. c #8E9799",
"-. c #939C9F",
";. c #A1998F",
":. c #BBA08A",
">. c #B3A699",
",. c #8A96A2",
"<. c #8C99A4",
"1. c #8F9BA8",
"2. c #939EA6",
"3. c #95A1A4",
"4. c #97A4A8",
"5. c #9AA6AA",
"6. c #9EAAAE",
"7. c #98A1A4",
"8. c #99A7B4",
"9. c #9FADBA",
"0. c #9BA8B1",
"q. c #A1A9AC",
"w. c #A1AEB2",
"e. c #A6B2B5",
"r. c #A5B3BD",
"t. c #AAB6BA",
"y. c #ABB9BE",
"u. c #C9B4A1",
"i. c #D3BBA7",
"p. c #DAC0AA",
"a. c #D3C7BA",
"s. c #F8D5B8",
"d. c #FFDABC",
"f. c #AFBDC3",
"g. c #ADBDCB",
"h. c #A5B3C1",
"j. c #B0BFCD",
"k. c #B2BFC3",
"l. c #B2C1C7",
"z. c #B8C7CB",
"x. c #BAC9CC",
"c. c #BCCCDC",
"v. c #B2C1D0",
"b. c #CAC3CD",
"n. c #D5CEC3",
"m. c #CFCBD4",
"M. c #D0CED7",
"N. c #C3D3D7",
"B. c #C4D4DB",
"V. c #CADBDF",
"C. c #D2D2DA",
"Z. c #F6E3D2",
"A. c #C4D5E3",
"S. c #C7D8E6",
"D. c #C9DBE4",
"F. c #CCDEEA",
"G. c #CFE1EC",
"H. c #D0E2E7",
"J. c #D2E4EA",
"K. c #D6E9EF",
"L. c #DAEDF4",
"P. c #D5E7F1",
"I. c #DEF1F6",
"U. c #DDF1F8",
"Y. c #E3F6FD",
"T. c #E5F9FF",
"R. c None",
/* pixels */
"R.R.R.+ + + + + + + R.R.R.R.+ + + O + + R.R.R.+ + + O + O O O + + R.R.+ + + + + + + + + + R.R.R.",
"R.R.R.: > 4 9 9 9 q 4 R.R.= : 9 9 9 9 < + R.= : 4 7 9 9 w 9 9 w 9 R.= : 9 9 9 < 4 4 9 9 9 R.R.R.",
"R.R.+ q w f M M M M q + + : 0 M M M M w + + : q d x M M M M M M M + : q M M M d d d M M M + R.R.",
"+ : 6 d l M M M M d u q d l M M M M d d d q u d M M M d s f M f d d d s i d d d x M M x d d 4 + ",
"+ = 1 e d x M M M 0 6 > u d l M M x u u w q u s l x M 0 w u f d e u e w u q q w d l M f u e < + ",
"+ * > 9 u d M M m > > > 6 q i m M x 6 6 5 6 w i d l m > < 0 i e 6 6 5 6 6 2 = 6 w d m d 0 5 : + ",
"+ * > q e f M x d > > > > 5 q d i i > = % > 5 6 d d d > > > q 5 > > = % % % % > 1 q d q > + R.R.",
"+ @ = > 6 u x d u = * = > 5 q d i q = * % = > 5 u u u > - = > > = = * % % + % = > 5 w 5 = + R.R.",
"R.+ + * > q f u q $ $ @ > 2 q s e 5 @ @ % $ = > q q q > * @ % @ @ @ % @ @ @ % % = > > = * + R.R.",
"R.R.+ $ = > 6 > & * @ $ % = > 0 > @ * * % % % % = = : + % * @ : q q q q * @ + + + * q q q + R.R.",
"R.R.+ + * = > = % % @ @ % % = > = % * * * @ = >     + * % @ = > > q 0 0 > =     o = q 0 0 > * R.",
"R.R.+ * + $ * @ * % * % % % % @ % * * * % @ = 1 * * * @ @ @ > > > q q 6 5 > 4 8 4 - 1 6 0 0 : + ",
"R.R.+ * @ @ # # * @ = > @ @ @ * > > @ @ @ * + . Z Z 9   + > > > > 0 e e = X | l.%.* + 5 s s 2 + ",
"R.+ + @ * = > > > @ * = > = * @ # = @ * = @     ^ W y   . > > > 5 e u e o   4.T.t.;   5 s 5 = + ",
"+ + * @ = > q 0 q * @ @ q > @ @ # # @ o . 4 v N i.u.` M a @ . + + * * 9 | 4.n.Z.>.*   6 s * + + ",
"+ + @ @ = > > 1 q q > * @ > q q q 5 @ .   8 W ^ d.s.>.^ V .           7 l.T.Z.d.:.*   + % @ @ + ",
"R.@ + % * = 5 q e e > # = > 2 q q 5 @ o   9 W ^ i.i.;.^ I k h h h p , h w.B.a.i.] &   + * @ @ R.",
"R.R.+ % % * 5 q s s 2 @ > > > q q 6 @ .   9 E ^ O.O./ ^ =.V.H.H.J.z.U W / X.| ] S O   + * + R.R.",
"R.R.R.+ + % @ > s # * @ > 5 q s s e @ .   9 W ^ / ^ / / 7.L.T.T.T.V.^ ^ ^ ^ ^ ^ C +   * % + R.R.",
"R.R.R.+ + % @ > 5 # * * > 0 e s s e @ .   9 W ^ ^ / 6.N.V.Y.T.T.T.V.^ ^ ^ ^ ^ ^ C +   - > + @ R.",
"R.R.R.+ @ @ @ @ * * @ @ q e s s s e @ .   9 W ^ ^ } k.T.T.T.T.T.T.V.^ ^ ^ ^ ^ ^ C O   > 9 % @ X ",
"R.R.+ % > q 0 q 0 @ o o + 5 s u 2 o @ c D ^ 5.6.q.q.y.x.x.x.b.K.T.J.w.3.] ^ ^ ^ P y 9 > - @ + + ",
"R.R.+ = > q 0 q q > . . + > 5 5 =   + 2.K.L.I.I.I.L.t. . . .X.N.T.T.I.D.#.! ^ ^ ~ ! I 4   . + + ",
"R.R.+ > 1 q q q 0 >     @ @ @ @ @   + q.T.T.Y.T.T.I.e.^ ^ ^  .N.U.T.T.H.&.^ ^ ~ ^ ^ ! 4   . + + ",
"+ * > > > > 0 @   ; ^ J ;   > 0 :   + 6.T.T.T.T.^ ^ ^ ^ S , , S ^ =.T.T.T.T.P - w W W 7     R.R.",
"+ * > > > 1 q = + 4 W J ;   = 6 :   + 6.T.T.T.T.^ ^ ^ ^ S , , S ^ =.T.T.T.T.P - w ! ^ 7     R.R.",
"+ * > > > * > I X.W y 8 - @ + * @   + 6.T.T.T.T.^ ^ ^ ^ S , , S ^ &.T.T.T.T.P - f e.t.p     R.R.",
"+ + + q < . $ 6.Y.f.    + > @       + w.T.T.T.T.^ ^ ^ ^ S , , S ^ =.T.Y.T.T.P , B J.L.v     + R.",
"R.@ + : : . + 9.Y.l.    O - y j j k b y.L.I.Y.T.-.-.#.^ P i i ^ -.q.b.M.I.T.#.A Y w.6.h + * * + ",
"R.R.+ # =   + w.Y.f.        =.G.H.J.J.A.c.G.Y.Y.L.K.w.^ ^ ! ^ x.I.b.) ' C.Y.L.K.w.3 ; , 5 q : + ",
"R.R.+ # +   + 4.P.r.+ O + + 6.T.T.T.Y.D.c.F.U.Y.T.I.t.} } O.X.N.Y.M.( _ C.T.I.K.6.;   - q s < + ",
"R.R.+ + @ + & y j C *.$.$.*.B.T.T.Y.Y.D.c.c.D.D.T.Y.J.N.N.N.N.I.T.K.b.m.L.T...j y = - 5 q 6 = + ",
"R.R.R.+ @ @ @     t c.c.c.c.P.Y.T.T.Y.D.c.c.c.c.T.Y.Y.T.U.T.T.U.T.U.T.T.T.T.N   X * 0 e s * @ X ",
"R.R.+ @ @ * 6 * o 9 <.8.g.c.G.L.U.Y.Y.G.A.A.c.c.I.L.U.L.U.L.L.U.U.L.L.K.z.f.h   o + * * @ + R.R.",
"R.R.+ @ * > 1 6 q >   7 1.c.c.c.S.U.Y.Y.Y.P.c.c.c.c.c.c.c.c.c.c.c.c.c.8.r   + > > > > : * + R.R.",
"R.R.+ # = > > 1 0 1 o 4 o.8.j.c.A.L.U.I.U.G.c.c.c.c.c.c.c.c.c.c.c.c.c.8.9   + 0 q q q > * + R.R.",
"+ + @ > > > > 1 0 6 < 4 r r ,.c.c.A.A.A.A.A.c.c.c.c.c.c.c.c.c.c.c.c.c.8.r   * 0 q 0 q q q + R.R.",
"+ # * > > > > > 5 0 q 5 X   o.c.c.c.c.c.c.c.c.c.c.c.c.c.c.c.c.c.c.c.c.8.8   * 5 5 5 0 0 0 > = R.",
"+ * > > > > > > > 0 q 5 o   o.c.c.c.c.c.c.c.c.c.c.c.c.c.c.c.c.c.c.9.j p ; @ = > > > q q q q : + ",
"+ * > > > > > > 0 s s q +   o.c.c.c.c.c.c.c.c.c.c.c.c.c.c.c.c.c.c.1.  O + % @ > > > q e i s > + ",
"+ % * > > > 2 q e s s e +   o.c.v.<.,.h.g.9.<.,.,.<.h.c.g.<.,.r.g.$.  o @ % @ > > 5 e u s s 2 X ",
"+ + @ > > > q e s s s q o   o.c.1.3 ; R ,.G ; & & ; [ c.<.3 ; E *.Q   o @ % + : 5 q s s s s 2 + ",
"R.R.+ > > > q e s s s e     o.c.,.& X G *.D O     X T c.,.$ X H *.E     + @ @ % 6 s s s s s 2 + ",
"R.R.X = > 5 e u s s q >     o.c.,.&   G *.D O     X T c.*.$ X H *.E     o @ @ @ > q s s s 0 = + ",
"R.R.+ % > q s s s s 5 +     X.c.,.* X G *.D +     + T c.*.$ O H *.E     . + * @ @ > s s s * @ o ",
"R.R.R.+ + * s s s * + + o   V { K $ X g D p O   X $ v { F 3 : c C j   O R.R.+ + @ % * % * o R.R.",
"R.R.R.+ + % 2 4 2 + + R.R.R.+ + + R.+ O O + + R.+ * % + * : > $ O + R.R.R.R.R.@ . @ @ + @ R.R.R.",
"R.R.R.R.+ + + + + + R.R.R.R.      R.R.      R.R.+ +       O + .     R.R.R.R.R.R.o o + + + R.R.R."
};
