/* XPM */
static char *_a2ece6c810d48f3adf0c0dffdd13b6afjw8LZi0VUoP1xI8[] = {
/* columns rows colors chars-per-pixel */
"48 48 102 2 ",
"   c black",
".  c #040001",
"X  c #040403",
"o  c #040404",
"O  c #181F0F",
"+  c #171716",
"@  c #1A220F",
"#  c #242423",
"$  c #262525",
"%  c #292828",
"&  c #33421F",
"*  c #36471F",
"=  c #36491E",
"-  c #364522",
";  c #374923",
":  c #FB5F46",
">  c #FC5D47",
",  c #FC5B49",
"<  c #FB5D49",
"1  c #FC5C49",
"2  c #F7604A",
"3  c #6CA13B",
"4  c #6CA13C",
"5  c #70A63D",
"6  c #7BB23B",
"7  c #78B13E",
"8  c #6C9F43",
"9  c #6A9E47",
"0  c #6E9F50",
"q  c #6CA144",
"w  c #6AA148",
"e  c #6DA349",
"r  c #70A544",
"t  c #77AD41",
"y  c #77AF46",
"u  c #73A74B",
"i  c #8DC73E",
"p  c #8BC93A",
"a  c #8EC93E",
"s  c #81BB41",
"d  c #8BC741",
"f  c #8FC642",
"g  c #8BC746",
"h  c #8EC747",
"j  c #8BC840",
"k  c #8CC841",
"l  c #8DC846",
"z  c #8DC648",
"x  c #90C743",
"c  c #90C744",
"v  c #90C841",
"b  c #91C845",
"n  c #90C24A",
"m  c #90C64B",
"M  c #92C34D",
"N  c #8BC452",
"B  c #79AE89",
"V  c #7BB08B",
"C  c #7DB48E",
"Z  c #9A9797",
"A  c #9A9898",
"S  c #9C9B9A",
"D  c #9F9E9F",
"F  c #A0A0A0",
"G  c #A4A4A4",
"H  c #A9A6A6",
"J  c #AEAAA7",
"K  c #ABA9A8",
"L  c #AEAAA9",
"P  c #ADACAB",
"I  c #AEACAC",
"U  c #B0ADAD",
"Y  c #B3B0B0",
"T  c #B7B7B7",
"R  c #FD9786",
"E  c #FD9886",
"W  c #F8998A",
"Q  c #FC9989",
"!  c #83ECA2",
"~  c #85EAA4",
"^  c #C1C1C1",
"/  c #C4C3C2",
"(  c gray78",
")  c #C8C7C7",
"_  c #C7C8C7",
"`  c #C9C9C7",
"'  c #CAC7C8",
"]  c #C6CBC9",
"[  c #C5CCC9",
"{  c gray79",
"}  c #CDC9C9",
"|  c gray80",
" . c #D2D1D1",
".. c #F8D3CC",
"X. c gray89",
"o. c #E7E7E7",
"O. c #E9E7E7",
"+. c #E5EAE7",
"@. c #EAE7E9",
"#. c #E7E9E8",
"$. c #E9E9EA",
"%. c white",
/* pixels */
"f f f f f x x x f f f f f f f f f f f x x f f f f f f f x x x x f f f f f f f f x x x x f f f f ",
"f f f f f x x x f f f f f f f f a g p a f f f f f f f f x x x x f f f f f f f f x x x x k N h f ",
"f f             f f f f f f f f a f f h         f f f f x x x x f f         f f x x x x d f h f ",
"f f             k f f f f f x x x x x x         f f f x x x x x f f         x x x x x x k x f f ",
"x x     $.$.    x x x x x x x x x x x x     ( {     x x x x x x x x     ( (     x x x x x x x x ",
"x x     $.$.    x x x x x x x x x x x x     { {     x x h x x x x x     { {     x x x x x x x x ",
"x x     $.$.    x x x x x x x x x x x x     { {     j l f f x x x x     { {     x x x x x x x x ",
"x x     $.$.    x x x x x x x x x x x x     { { { |                         { {     x x x x x x ",
"f f     $.$.    x f f f k y h x x x x x     { { { {                         { {     x x x x f f ",
"f f     L L     f f f f 6 f 7 x x x x f     { { { { { { L I { { L L { { P P { { { {     x f f f ",
"f f     L L     f f f f f f f x x x x f     { { { { { ' L L { { L L ` { L K { { { {     f f f f ",
"f f     L L     f f f f f f f x x x x f     { { { { { ( L K { _ K K ` { L K { { { {     i i f f ",
"f f     L L     f f f f f f f x x x v f     { { { { { { { { { { { { { { { { { { { {     f f f f ",
"f f     L L     f f f f f f f f f a h x     { { { { { { { { { { { { { { { { { { ] )   X x f f f ",
"f f     ` {     f f f f                 o.o.$.$.%.%.~ ~ [ { { { { { { { { { %.%.! ~ $.$.    f f ",
"f f     { {     x f f f                 o.$.$.$.%.%.! ! ` { { { { { { { { { %.%.~ ~ $.$.    f f ",
"x x     { {     x x n M % # # # # $     o.$.X.X.%.%.C C { { { { F G { { { { %.%.V B @.$.    x x ",
"x x     { {     x x     L L L L L L     o.$.{ { %.%.    { { { {     { { { { %.%.    $.$.    x x ",
"x x     { {     x x     L L L L L L     o.$.{ _ %.%.    { { { _     ` { { { %.%.    $.@.    x x ",
"x x     L L         K K ( ' L L ` {     $.#.R E { { { { { {   o , >     { { { { { { E Q .   x x ",
"x x     L L         L L ` { L L { {     o.+.R R ] { { { { {     > :     { { { { { { E W     x x ",
"f f     L L     F D L L ` { L L { {     o.$.....X.X.{ { { { D D > 2 D D { { { { X.X.....    f f ",
"f f     L L     { { L L ` { L L { {     o.$.$.$.$.$.{ { { { { { > , { { { { { { o.$.$.$.    f f ",
"f f     L L     { { L L ` { L L { {     $.$.$.$.$.$.{ { { { { _ < 1 ] { { { { { $.$.$.o.    f f ",
"f f     L L { { { { L L ` { L L { ( { {             { { { { $.$.O.o.o.$.{ {             x f f f ",
"f f     L L { { { { L L ` { L L { { { {             { { { { $.+.+.@.$.$.{ {             x f f f ",
"f f     + + ( { { { / ( { { ( / { { { { T T S S S A I I I I Y Y Y Y Y Y I U S S     c b j f f f ",
"f f         { { { { { { { { { { { { { { { { L L L L L L L L L L L L L L L L L K     x q w 4 f f ",
"x x         { { { { { { { { { { { { { { { { K K L L L L L L L L L L L L L L L K     x z k m x x ",
"x x x x     { { { { { { { { { { { { { { { { { ' L L L L L L L L L L L L L L L K     x x x x x x ",
"x x x x     { { { { { { { { { { { { { { { { { ' L L L L L L L L L L L L L L L K     x x x x x x ",
"x x x x     { { { { { { { { { { { { { { { { { { { } } } } } } } } } { { L L L K     x x x x x x ",
"f f f f     { { { { { { { { { { { { { { { { { { { { { { { { { { { { { { L L L K     x x x f f f ",
"f f f f     { ' { { { { { { { { { { { { { { { { { { { { { { { { { { { { L L L K     x x x f f f ",
"f f f f     L L { { { { { { { { { { { { { { { { { { { { { { { { { { { { L L L K     x x x f f f ",
"f f f f     L L { { { { { { { { { { { { { { { { { { { { { { { { { { { { L L L K     x x x f f f ",
"f f f f f x     L L { { $.o.    { { { { { { { { { { { { { { $.$.{ { { { L L L K     x x x f f f ",
"f f f x t k     L L { { $.o.    { { { { { { { { { { { { { { $.o.{ { { { L L L K     x x x f f f ",
"f f f 9 s 0 @ O H H { ( $.$.    { { ' { { { { { { { { { { ( $.$.^ ^ { { L L L K     x x x f f f ",
"f f f x x l x x     L L $.$.    { { L L L L L L L L L L L L @.$.    { { L L L K     x k r f f f ",
"x x x x x x x x     L L $.$.    { { L L L L J J J J J J J L @.$.    { { L L J L     x e l 8 x x ",
"x x x x x x x x x x     $.$.        L H                     o.$.        L L     x x x f x x k x ",
"x x x x x x x x x x     $.$.        L L                     o.$.        L L     x x x x x x x x ",
"x x x x x x x h z k      . .& - - & A Z     * * * * = ;     | | * * * * Z Z     e f x x x x x x ",
"f f f x x x x u 3 5         x x x x         f f f f x k         x f f f         f x x x x x f f ",
"f f f x f x x v h f         f x x x         f f f f f x         f f f f         x x x x x x f f ",
"f f f f f x x x f f f f f f f x x x x f f f f f f f f f x x x x f f f f f f f f x x x x x f f f ",
"f f f f f x x x f f f f f f f x x x x f f f f f f f f f x x x x f f f f f f f f x x x x x f f f "
};
