/* XPM */
static char *result[] = {
/* columns rows colors chars-per-pixel */
"32 32 6 1 ",
"  c black",
". c #2F2300",
"X c #6A8535",
"o c #F68080",
"O c #CDCDCD",
"+ c gray92",
/* pixels */
"XXXXXXXXXXXXXXXXXXXXXXXXXXXXXXXX",
"XXXXXXXXXXXXXXXXXXXXXXXXXXXXXXXX",
"XXXXXXXXXXXXXXXXXXXXXXXXXXXXXXXX",
"XXXXXXXXXXXXXXXXXXXXXXXXXXXXXXXX",
"XXXXXXXXXXXXXXXXXXXXXXXXXXXXXXXX",
"XXXXXXXXXXXXXXXXXXXXXXXXXXXXXXXX",
"XXXXXXXXXXXXXXXXXXXXXXXXXXXXXXXX",
"XXXXXXXXXXXXXXXXXXXXXXXXXXXXXXXX",
"XXXXXXXXXXXXXXXXXXXXXXXXXXXXXXXX",
"XXXXXXXXXXXXXXX  XXXX XXXXXXXXXX",
"XXXXXXXXXXXXXX o+ XX O XXXXXXXXX",
"XXXXXXXXXXXXXX o++  OO XXXXXXXXX",
"XXXXXXXXXXXXXX o+++++O XXXXXXXXX",
"XXXXXXXXX XXXX +++++++ XXXXXXXXX",
"XXXXXXXX O XXX ++.++.+ XXXXXXXXX",
"XXXXXXXXX O X  ++++o++ XXXXXXXXX",
"XXXXXXXXX O  ++O+++++ XXXXXXXXXX",
"XXXXXXXXXX +++++O+++ XXXXXXXXXXX",
"XXXXXXXXXXX ++++++++ XXXXXXXXXXX",
"XXXXXXXXXXX ++ +++ + XXXXXXXXXXX",
"XXXXXXXXXXXX +  ++ + XXXXXXXXXXX",
"XXXXXXXXXXXXXXXXXXXXXXXXXXXXXXXX",
"XXXXXXXXXXXXXXXXXXXXXXXXXXXXXXXX",
"XXXXXXXXXXXXXXXXXXXXXXXXXXXXXXXX",
"XXXXXXXXXXXXXXXXXXXXXXXXXXXXXXXX",
"XXXXXXXXXXXXXXXXXXXXXXXXXXXXXXXX",
"XXXXXXXXXXXXXXXXXXXXXXXXXXXXXXXX",
"XXXXXXXXXXXXXXXXXXXXXXXXXXXXXXXX",
"XXXXXXXXXXXXXXXXXXXXXXXXXXXXXXXX",
"XXXXXXXXXXXXXXXXXXXXXXXXXXXXXXXX",
"XXXXXXXXXXXXXXXXXXXXXXXXXXXXXXXX",
"XXXXXXXXXXXXXXXXXXXXXXXXXXXXXXXX"
};
