/* XPM */
static char *result[] = {
/* columns rows colors chars-per-pixel */
"16 16 3 1 ",
"  c #C0CBDC",
". c #52607C",
"X c #8B9BB4",
/* pixels */
"................",
"XXXXXX.X    X.XX",
"XXXXXX.XXXXXX.XX",
"XXXXXX.XXXXXX.XX",
"................",
"  X.XXXXXX.X    ",
"XXX.XXXXXX.XXXXX",
"XXX.XXXXXX.XXXXX",
"................",
"XXXXXX.X    X.XX",
"XXXXXX.XXXXXX.XX",
"XXXXXX.XXXXXX.XX",
"................",
"  X.XXXXXX.X    ",
"XXX.XXXXXX.XXXXX",
"XXX.XXXXXX.XXXXX"
};
