/* XPM */
static char *result[] = {
/* columns rows colors chars-per-pixel */
"48 48 141 2 ",
"   c #141216",
".  c #161318",
"X  c #19141A",
"o  c #1A191C",
"O  c #161525",
"+  c #1B1B27",
"@  c #16162C",
"#  c #1B1C2C",
"$  c #171732",
"%  c #171832",
"&  c #191A34",
"*  c #1C1E3A",
"=  c #1D2032",
"-  c #1F233E",
";  c #23282F",
":  c #202334",
">  c #23263D",
",  c #242C3D",
"<  c #2C3137",
"1  c #28303B",
"2  c #1F2440",
"3  c #212542",
"4  c #242B43",
"5  c #2D2D42",
"6  c #262E4A",
"7  c #273046",
"8  c #293042",
"9  c #2F3C44",
"0  c #27304C",
"q  c #29334A",
"w  c #2D3A4B",
"e  c #303E46",
"r  c #303548",
"t  c #2A3351",
"y  c #2E3C53",
"u  c #303F52",
"i  c #2F404E",
"p  c #344440",
"a  c #34454D",
"s  c #394E4E",
"d  c #324255",
"f  c #3F4856",
"g  c #34445A",
"h  c #374A5D",
"j  c #384E5D",
"k  c #3B555D",
"l  c #3A4D62",
"z  c #3C5264",
"x  c #3F5B61",
"c  c #40474A",
"v  c #404957",
"b  c #434E5D",
"n  c #415E57",
"m  c #47575E",
"M  c #4B5959",
"N  c #505F5D",
"B  c #5C5D5C",
"V  c #47685F",
"C  c #415D62",
"Z  c #4B5A65",
"A  c #435C6B",
"S  c #436165",
"D  c #45616D",
"F  c #47696A",
"G  c #536067",
"H  c #556B63",
"J  c #496672",
"K  c #476870",
"L  c #4B6974",
"P  c #5F6E73",
"I  c #4D7276",
"U  c #4F7378",
"Y  c #537D75",
"T  c #507379",
"R  c #547A7C",
"E  c #606565",
"W  c #63746B",
"Q  c #69786F",
"!  c #617074",
"~  c #697970",
"^  c #647578",
"/  c #6A7B7D",
"(  c #737D77",
")  c #757E78",
"_  c #7E827F",
"`  c #5C7B80",
"'  c #6D7F80",
"]  c #598683",
"[  c #5D8B86",
"{  c #5F8E88",
"}  c #5F9387",
"|  c #668485",
" . c #6C8281",
".. c #628D89",
"X. c #738685",
"o. c #73898C",
"O. c #62938A",
"+. c #6C938F",
"@. c #64998E",
"#. c #70988E",
"$. c #6E9590",
"%. c #679F91",
"&. c #7C9393",
"*. c #729893",
"=. c #7E9D95",
"-. c #7E9E99",
";. c #6AA594",
":. c #6DAA97",
">. c #6EAB98",
",. c #74A397",
"<. c #78A79A",
"1. c #73AD9A",
"2. c #7BAA9D",
"3. c #77B09C",
"4. c #79B19E",
"5. c #7EB5A1",
"6. c #8B908C",
"7. c #82A29C",
"8. c #8BABA3",
"9. c #84B4A3",
"0. c #82B8A4",
"q. c #9CBBAC",
"w. c #8FC0AB",
"e. c #93C2AD",
"r. c #97C6B1",
"t. c #9AC7B2",
"y. c #A5CEB8",
"u. c #A6D0BA",
"i. c #A9D1BB",
"p. c #B0D6BF",
"a. c #B6DAC3",
"s. c #BBDDC7",
"d. c #BDDFC8",
"f. c #C4E2CD",
"g. c #CFE7D5",
"h. c #D0E7D6",
"j. c #D2E8D7",
"k. c #D4E9D9",
"l. c #E0EEE2",
"z. c #E7F2E7",
"x. c None",
/* pixels */
"x.x.. . . . . . . . .       . . . . . o x.x.x.. . . . . . . . . . . . . . . . . . . . . . . x.x.",
"x.p n Q ~ ~ _ ) Q Q _ _ _ _ Q _ _ _ _ H o x.B _ _ _ _ _ _ _ Q ( _ _ _ _ _ _ _ X._ _ _ _ _ _ B x.",
". n :.d.d.f.z.k.d.d.j.z.z.j.s.z.z.z.z.6.o   _ z.z.z.z.z.z.z.s.g.z.z.z.z.z.z.z.z.z.z.z.z.z.z._ . ",
". e J :.:.4.d.d.s.s.s.s.a.s.s.s.d.d.d.h.z.s.s.s.d.d.d.d.s.s.s.s.s.d.d.d.s.s.s.s.s.s.s.f.d.z._ . ",
". 1 l [ @.1.e.e.e.e.e.e.e.e.e.e.e.r.f.f.j.e.e.e.e.e.e.e.w.e.e.e.e.d.d.d.e.e.e.e.e.e.w.y.s.z._   ",
". = t L [ :.:.:.:.%.%.%.:.:.:.:.>.1.p.p.s.:.:.:.:.;.;.:.:.:.:.:.>.d.a.p.:.:.:.:.:.:.:.w.s.l._ . ",
". : t L [ :.:.:.:.L L L :.:.>.:.>.:.:.e.s.>.>.:.:.] J :.:.:.:.:.:.d.r.:.:.:.>.:.:.:.:.q.s.d.Q . ",
". : t L R [ [ Y F z A L [ [ [ } ....:.1.7.....} [ R L [ [ [ } [ [ t.2.[ { [ { { ..[ } 9.a.8.N . ",
". : t L L L L a o t l L J L L L J T :.O.L L L L L L L L L L L L L :.[ L L L L L L L L -.s.L p . ",
". : t t q 6 X . . t t t t t t . : t t t t t t t L L L t t y L L L J L L . p L t t y L L J t : . ",
"x.# : : : = . . . : : : : : : . + : : : : : = : p w p = : : a w 9 i i w . ; 9 : : > e e e : # x.",
"x.x.. . . . . . . . . . . . . . . . .   X X . . . . . . . . .   . .   . . . . . . . . . . . x.x.",
". : t L [ 4.d.X.& % u J L [ >.d.e.:.:.e.d.d./ @ $ u L :.>.4.d.t.:.:.r.d.d.d.d.$ d U >.w.s.@ O . ",
". : t l R 4.d.X.& 3 h L J R [ 7.$.} :.5.e.r.7./ $ d L [ [ ..7.*.[ :.5.r.r.i.d.% w z [ ,.e./ c . ",
". : t t U 4.d.X.& t z L L L L L L U :.:.:.:.e.d.$ d L L L L L L L :.:.:.:.q.d.% 2 y J ] :.d.Q . ",
". : t t z U :.F & t l L J L J J L J L J J J [ ;.$ u J L J L L L L L K J :.:.>.% 3 y L ] :.d.Q . ",
". = t t z I ] z % t l L l l l l l z L z y w j C % , u w g z L A l L A l ] O.:.$ 3 y L ] :.<.M . ",
". > t t l D K g & t l D 0 t t t 0 t A y $ 4 8 r r r r $ 2 t A h t A l t J ] %.$ 3 y D T @.L r . ",
". : t t t y K g % t t t t t t t - $ $ $ $ >.r.d.d.d.d.$ $ $ $ - t t t t L L L $ 3 t t t q L 9 . ",
"o = 3 3 2 2 g 7 % 3 3 3 3 3 3 3 b P P f % U | &.t.t.t.% w C P b 4 3 3 3 g g g $ * 3 3 3 3 g w < ",
"x.% $ $ % % % % % % % $ $ $ $ % / s.s. .& y y t >.>.>.% S 1.a.X.% $ $ $ % % $ $ & & % % % % w m ",
". O $ L [ :.:.q.s.:.:.:.d./ $ t U :.:.U t $ $ $ $ $ $ t U 4.d.d.d.$ S :.>.e.d.:.r.d.s.s.d.d.~ . ",
". # 3 L ` ] [ $.7.[ @.:./ f $ z L ] I j 3 O O O O O O 2 j R e.i.d.$ j [ [ <.r.:.0.r.r.u.s.d.~ . ",
". : t L L L J L L J [ :.$ $ $ J L D 0 3 $ . . . . . . % 2 g :.q.d.$ u L J [ :.>.>.;.:.q.s.d.~ . ",
". : t L L L L L L L u $ $ $ $ $ 2 0 % @ .   . . . . . . O & t 2 $ $ $ $ J L L L L L L ] ;.d.Q . ",
". : t z l l l A J l 0 % $ 4 y / k - O . . . . . . . . . X @ 2 d S / v $ l l l J A z L ] :.e.H . ",
". = t t t t t l J t 2 $ $ u L s.^ @ . . . . . . . . . . . X % k ;.d./ $ t t t L l y L ] ;.1.n . ",
". O $ 0 t t 6 t t % % $ $ d J :.x @ . . . . . . . . . . . X $ k ;.d./ $ q t t t t t t t 0 J e . ",
"x.O $ - 2 2 2 2 2 $ $ $ $ 7 l ;.x @ . . . . . . . . . . . . % y K d./ $ 2 2 2 2 - 2 2 2 3 u , x.",
"x.% & - 3 > $ $ $ $ $ $ $ 2 t ;.z @ . . . . . . . . . . . X $ 2 t p.^ $ q > % % % - 4 5 q r 5 x.",
". : t L [ } $ $ % % $ $ $ 2 t L y @ . . . . . . . . . . . . $ - t :.C $ d./ % % g U :.w.s.d.Q . ",
". : t l U [ P f % $ $ $ % * 2 g Z G O X . . . . . . . . . # z i 3 F u $ t.=.P % q x { <.r.d.Q . ",
". : t t z ` a. .* $ $ $ $ $ $ % ' q.$ O X X . . . . . . O , ;.F % % $ $ 1.r.a.$ 3 y L ] >.d.^ X ",
". : t t z U :.F % $ $ $ $ $ & L [ 4.d.X.% . . . . . . $ d T 1.w.d.$ d L L ] :.$ 3 y J ] :.:.n X ",
". : t t z L [ k % % % $ $ $ $ l L O.e.#.S O O O O O O 3 h L [ ,.e.$ 7 l L R ] $ 3 y J ] :.] s . ",
". > t t z L K g % % & $ $ $ $ t l U 1.:.1.$ $ $ $ $ $ t l L L ] >.$ 3 t L L L % 3 y J ] ;.L e . ",
". : t t t y L g & $ $ $ $ $ $ $ 3 y L g % J [ >.d.d.d.% 3 t t 3 $ t t t t l L % 3 0 t h L L e X ",
"x.& 3 3 3 3 i 4 $ $ $ $ $ $ $ $ * 3 u 6 & l A L o.7.e.% * 3 3 * $ 2 2 2 3 7 u $ * 3 3 6 u u 8 x.",
"x.x.% % % $ $ % $ $ $ $ $ $ $ $ $ $ $ $ % t t t t L :.% % $ $ $ $ $ $ $ % $ $ $ $ $ $ $ $ $ x.x.",
". : t t z U :.q.d.;.e.d.$ $ $ $ $ $ $ % % % $ $ % % % % % % $ $ $ L [ :.>.r.a.>.:.4.d.d.d.d.~ . ",
"X : t t l I ] $.-.] $.7.u 4 $ $ $ $ $ $ $ $ $ $ $ $ $ $ b P $ * 3 L R ] ] $.7.] @.1.e.e.e.d.~ X ",
". : t t l L L L L L L L L g > $ % % $ $ $ $ $ $ $ & - -  .q.$ - t L J L L L L L ] %.%.;.:.i.W . ",
". : t t l L L L L L L L L L J $ & % $ $ $ $ $ $ $ d L L [ } $ 2 t J L L J L L L L L L ] :.:.n . ",
". : t t y A L A z z A L z A J $ & - 2 > - - - - w g z J R R $ - t z z z z A L z A J z L [ :.n . ",
". : t t t y L z t t z L t l L % 3 0 t t t t t t J z t L L A $ - t t t t t l L t z D t h J :.n X ",
". O & t t t t t t t t t t l L & 4 t t t t t t t q t t t z A $ $ % t t t t t t t t t t l J L e   ",
"x.O @ : : : : : : : : : = 5 e & & : : : = : : : : : = : 1 9 x.O O : : : : : : : : : : , e e < x.",
"x.x.. . . . . . . . . . . . . x.o . . . . . . . . . . . . . x.x.X . . . . . . . . . . . . . x.x."
};
