/* XPM */
static char *result[] = {
/* columns rows colors chars-per-pixel */
"48 48 128 2 ",
"   c #155E2E",
".  c #1A5D2E",
"X  c #115F31",
"o  c #245B2B",
"O  c #2B5929",
"+  c #07642E",
"@  c #0C632F",
"#  c #07682C",
"$  c #0A6A2F",
"%  c #10602F",
"&  c #19632D",
"*  c #18722F",
"=  c #1C7A2E",
"-  c #0E6231",
";  c #0D6A33",
":  c #116232",
">  c #1B6435",
",  c #126B34",
"<  c #196D32",
"1  c #126E39",
"2  c #0E7235",
"3  c #0E7239",
"4  c #147134",
"5  c #1B7432",
"6  c #1C7A32",
"7  c #14743C",
"8  c #157B3E",
"9  c #1F7B39",
"0  c #24652F",
"q  c #38612F",
"w  c #237935",
"e  c #2A7D32",
"r  c #217738",
"t  c #227E3A",
"y  c #456432",
"u  c #496D34",
"i  c #486F3A",
"p  c #556C39",
"a  c #627035",
"s  c #147440",
"d  c #197741",
"f  c #167B42",
"g  c #1A7D44",
"h  c #227F49",
"j  c #4F7647",
"k  c #757944",
"l  c #837943",
"z  c #2D8235",
"x  c #25823D",
"c  c #29823A",
"v  c #2B8C3C",
"b  c #338536",
"n  c #31873B",
"m  c #348C3C",
"M  c #3B903E",
"N  c #438F3A",
"B  c #4A9337",
"V  c #45943C",
"C  c #4B963B",
"Z  c #469A3D",
"A  c #4D9B3C",
"S  c #549C3A",
"D  c #5AA03E",
"F  c #69A03E",
"G  c #67AC3F",
"H  c #6DAF3E",
"J  c #75B53E",
"K  c #7CBA3E",
"L  c #1B8246",
"P  c #1D8549",
"I  c #1A8B4A",
"U  c #1B914D",
"Y  c #1D9251",
"T  c #208546",
"R  c #268E41",
"E  c #22844A",
"W  c #228C4E",
"Q  c #2C8C4A",
"!  c #318B49",
"~  c #21924D",
"^  c #3E9C45",
"/  c #399749",
"(  c #238E50",
")  c #249351",
"_  c #4C9C42",
"`  c #509940",
"'  c #778849",
"]  c #7A894B",
"[  c #6C9F43",
"{  c #678A54",
"}  c #798F50",
"|  c #52A244",
" . c #56A947",
".. c #5FAA41",
"X. c #6EA241",
"o. c #62A943",
"O. c #6CA149",
"+. c #70A646",
"@. c #74AD45",
"#. c #74A74A",
"$. c #65B247",
"%. c #6DB443",
"&. c #74B643",
"*. c #7BB343",
"=. c #75B943",
"-. c #7BBB42",
";. c #7FBA4A",
":. c #8CC73E",
">. c #8DC83D",
",. c #90C83E",
"<. c #87844E",
"1. c #95874B",
"2. c #9D874C",
"3. c #9C894F",
"4. c #908B52",
"5. c #A38649",
"6. c #AD8549",
"7. c #B78147",
"8. c #BB8145",
"9. c #B38349",
"0. c #83BE42",
"q. c #84C143",
"w. c #8FC642",
"e. c #8EC842",
"r. c #8DC64A",
"t. c #90C743",
"y. c #90C841",
"u. c #8BC452",
/* pixels */
"w.w.w.w.w.t.t.t.w.w.; ; J t.w.w.w.>.w.t.w.w.w.w.w.w.t.t.t.t.t.t.w.w.w.w.w.w.t.w.t.t.t.t.w.w.w.t.",
"w.w.t.w.t.t.t.t.w.m ; : # t.w.w.>.r.>.>.w.w.w.y.w._ =.t.t.t.t.t.w.w.w.w.; - 4 t.t.t.t.t.w.u.q.t.",
"t.w.t.w.w.w.F ,.e.@ 7 W X C w.w.>.e.>.e.w.w.w.w.; : @ w.t.t.t.t.w.w.w.J - 1 X &.t.t.t.t.e.e.w.>.",
"w.w.w.t.w.[ r.#.9 - I U ; @ w.t.t.t.t.e.y.w.w.=.- g X x t.t.t.t.w.w.w.@ ; W - $ t.t.t.t.w.t.w.t.",
"t.t.t.t.t.t.w.&.- 7 U U W : x t.t.t.t.t.t.w.w.- ; I 7 ; -.t.t.t.t.t.M : P U P @ D y.t.t.t.t.t.t.",
"t.t.t.t.t.t.t.3 @ U U U Y 7 : q.t.t.t.t.X.X.b   W U W - 7 t.t.t.t.y.@ 2 U U U $ ; t.t.t.t.t.t.t.",
"t.t.t.t.t.t.$.: L I U U U W @ 6 t.t.t.t.w.r.@ ; I U U 8 : q.t.t.t.w ; U U U U U - v t.t.t.t.t.t.",
"t.t.t.t.t.w.; ; I I I I I I d : &.t.t.t.w.t @ W U U ~ ~ ; ; t.t.0.@ 8 ) U U U U 7 @ 0.t.t.t.t.t.",
"w.t.w.w.w.w.@ d I I I I I I I : B t.t.t.q.% 7 I I I I I g - &.t.+ % P I I I I I I % g t.t.t.w.w.",
"w.w.>.r.>.t.; @ P I I I I I - @ -.t.t.w.K $ 8 I I I I I P - J w.# , I I I I I I W @ # w.t.t.w.t.",
"w.w.w.w.w.w.w.: f I I I I I - g t.t.t.w.t.< % P I I I I - ; ;.O.| % ; I I I I I $   &.w.>.t.w.w.",
"w.w.w.w.t.t.6 ; ) U U U U U 7 @ t.t.t.w.w.6 @ ~ U U I T X ; *.>.*.% 7 U U I I U ; , w.w.:.:.w.t.",
"w.w.>.t.t.+.- s U U U U U U I - B t.y.t.q.% 7 U Y I Y % X X &.t.| - W U U U U U P - %.w.>.w.w.w.",
"t.w.t.w.t.9 - ) U U U U U U U 2 # ,.e.t.! - W U U W ; % E X ; t.- 3 U U U U U U U ; # t.t.w.w.w.",
"w.t.w.t.q.% d U U U U U U U U U - R w.:.- 1 U U U P - g I 1 % N - U U U U U U U U P : | t.t.w.w.",
"w.w.w.t.t @ I U U U U U U U U U 7 - t.C % U U U U - - U U Y % X ; U U U U U U U U U ; ; t.t.w.w.",
"t.t.w.w.; 3 I I U U U U U U I U P - G ; ; U U U g - g U Y U s - W U U U U U g g Y Y Y - | w.w.t.",
"t.t.w.6 - I I I I I I L I I I I I 1 % % W U U U % ; U U U U U - ; I I U U g X X 3 I I , ; t.t.t.",
"t.t.e.6 ; E I I I I I I I I I I P ; - : 7 ) Y d % g I I I I I d % d I I I - - , - P I P X J t.t.",
"t.t.r.w.; : P I I I I I I I I I ; : 0.z : ; g ; , I I I I I I I - - I I d - P Y - ; I - ; 0.t.t.",
"t.t.t.w.r @ W U I I I I I I U U 1 @ e.w.=., X X - L I I I I I f X ; I P - ; I U s % : :  .t.y.t.",
"w.w.t.%.- L U U I U U I U U U U W @ 5 w.t.e.N > X + I I I I I + - Y I 7 - I U U Y - X X m t.w.w.",
"w.w.t.; ; U U P f U U U U U U U U g : H e.w.S : X g U U U U U f % I P % 1 Y U U I g X : @ q.w.w.",
"w.w.o., Y U I - + # U U U U U U U U ; - w.t.t.: - Y U U U U U U - 1 1 % P I I I I I ; , : ; w.w.",
"w.w.- s Y U 1 - h % P U U U U U U Y Y - &.w.%.; P U U U U U U U g - - - P I I I I I , , J % ..w.",
"t.C X P I W - 7 ) ; - I U U U U U I U ; < w.w - Y U U U U U U U U - X X - I I I I 2 % ` t.< 3 w.",
"w.B X Y I - % I U P - s U U U U U U Y 1 , w.- L U U U U U U U U U s X X d I U U U W X ` e.n @ w.",
"w.0.- ; W ; g Y U U ; % I Y U U ) U L   c 6 - ( U U U U U U U U U W - - Y Y U U U I - ; [ r ; t.",
"y.y.A @ X ; Y I U U I X 7 Q ( T 8 # : e q.: d I I L I I I I I I I I 7 % I U U U U U f ; S @ e t.",
"t.y.r./ % T I I I I I ; . {   X , 5 q.t.-.% P I I I I I I I I I I I d - P U U U U U U % : 4 t.t.",
"t.t.t.= : P I P I I P d & j . %.t.t.t.t.w.; + I I I I I I I I I P P - - U U U U U U I 8 % -.t.t.",
"t.t.t.y.@ # I I I I f   > > , t.t.t.t.t.e.%.+ L I I I I I I I L Y 3 % W U U U U U U U W % t t.t.",
"w.w.w.w.# ; Y U U U ( - : % e.t.t.t.t.t.w.@ ; U U U U U U U U U U U @ ; Y I U U U U U U , ; w.w.",
"w.t.w.%.@ W U U U U U 1 , 0.w.t.t.t.t.r._ - W U U U U U U U U U U U g   g I U U U U U U $ ; w.w.",
"w.w.w.1 ; U U U U U U I X V t.t.t.t.w.w.@ 7 U U U U U U U U U U U U U ; X Q ! _ Q W 8 @ : A w.t.",
"w.w.0.@ P U U U U U U U ; @ w.t.t.t.t.t @ I U U U U U U U U U U U U Y P X j 2.8.4.. > < q.w.w.w.",
"w.w.1 % I U U U U U U U W   ^ w.t.t.t.- g U U U U U U U U U U U U U U U 1 O 6.l 1.& J t.e.t.w.w.",
"t.0.; L U U U U U U U U U ; ; t.t.t.t.: ) U U U U U U U U U U U U U U U f . <.1.q & q.t.t.w.t.w.",
"t.C : I U U U U U U U U U d X q.t.t.w.; ; I U U U U U U U U U U U U I U ; X . . - V t.t.t.w.w.w.",
"t.S : W U U U U U U U U U 7 - 0.t.t.e.Z - - 1 ( U ) ~ U U ~ ~ I ) ) 3 - % o.J J 0.e.w.w.+.w.t.w.",
"t.t.$ : 1 T Q / Q ! Q f ; @ 8 :.,.t.t.t.0.b - X @ 0 <.1.' ] } & - : - N q.t.t.t.t.t.t.O.r.[ t.t.",
"t.t.y.t , X i 8.5.3.o % % | 0.e.0.t.t.t.t.t.t.t.4 q 9.8.8.7.6.o 4 t.t.t.t.t.t.t.t.t.t.t.y.y.w.t.",
"t.t.t.t.t.: u l 8.6.0 * t.t.w.w.t.t.t.t.t.t.t.t.-.  l l 8.9.a : w.t.t.t.t.t.t.,.t.y.y.t.t.t.t.t.",
"t.t.t.t.t.1 & k 3.p & =.t.t.e.w.t.t.t.t.t.t.t.t.t.w X u k y : n t.t.t.t.t.t.@.+.O.r.t.t.t.t.t.t.",
"t.t.w.t.t.t.-   .   c w.w.w.t.t.t.t.t.t.t.t.0.t.t.t.9 @ : - ` t.t.w.t.w.w.t.t.t.w.t.t.t.t.t.t.w.",
"t.t.w.t.t.t.t.J J J t.w.t.w.w.t.t.t.t.t.t.t.t.:.t.t.t.t.t.t.t.t.t.w.w.w.t.w.w.w.t.t.t.t.t.t.t.w.",
"t.w.w.t.w.t.t.t.>.w.w.t.w.w.t.t.t.t.t.t.t.t.w.t.w.w.,.t.t.t.t.t.w.w.t.w.w.w.w.t.t.t.t.t.t.w.w.w.",
"w.w.w.w.w.t.t.t.w.t.w.w.t.w.w.t.t.t.t.t.t.,.w.w.t.w.t.w.t.t.t.t.w.t.w.w.t.w.w.w.t.t.t.t.t.w.t.w."
};
