/* XPM */
static char *result[] = {
/* columns rows colors chars-per-pixel */
"32 32 5 1 ",
"  c #3F2631",
". c #BD6C4A",
"X c #6A8535",
"o c #479F4A",
"O c #84C669",
/* pixels */
"XXXXXXXXXXXXXXXXXXXXXXXXXXXXXXXX",
"XXXXXXXXXXXXXXXXXXXXXXXXXXXXXXXX",
"XXXXXXXXXXXXXXXXXXXXXXXXXXXXXXXX",
"XXXXXXXXXXXXXXXXXXXXXXXXXXXXXXXX",
"XXXXXXXXXXXXXXXXXXXXXXXXXXXXXXXX",
"XXXXXXXXXXXXXXXXXXXXXXXXXXXXXXXX",
"XXXXXXXXXXXXXXXXXXXXXXXXXXXXXXXX",
"XXXXXXXXXXXXXXXXXXXXXXXXXXXXXXXX",
"XXXXXXXXXXXXXX    XXXXXXXXXXXXXX",
"XXXXXXXXXXXXX      XXXXXXXXXXXXX",
"XXXXXXXXXXXX   OO   XXXXXXXXXXXX",
"XXXXXXXXXXXX  OOOO  XXXXXXXXXXXX",
"XXXXXXXXXXX   OOOO   XXXXXXXXXXX",
"XXXXXXXXXXX  OOOooO  XXXXXXXXXXX",
"XXXXXXXXXXX  OOOooO  XXXXXXXXXXX",
"XXXXXXXXXX   OOOOOO   XXXXXXXXXX",
"XXXXXXXXXX  oOOOoOOo  XXXXXXXXXX",
"XXXXXXXXXX  oOOOOOOo  XXXXXXXXXX",
"XXXXXXXXXX  ooOOOOoo  XXXXXXXXXX",
"XXXXXXXXXX  oooooooo  XXXXXXXXXX",
"XXXXXXXXXX  oOoooooo  XXXXXXXXXX",
"XXXXXXXXXX  oooooooo  XXXXXXXXXX",
"XXXXXXXXXX   oooooo   XXXXXXXXXX",
"XXXXXXXXXXX    ..    XXXXXXXXXXX",
"XXXXXXXXXXXXXXXXXXXXXXXXXXXXXXXX",
"XXXXXXXXXXXXXXXXXXXXXXXXXXXXXXXX",
"XXXXXXXXXXXXXXXXXXXXXXXXXXXXXXXX",
"XXXXXXXXXXXXXXXXXXXXXXXXXXXXXXXX",
"XXXXXXXXXXXXXXXXXXXXXXXXXXXXXXXX",
"XXXXXXXXXXXXXXXXXXXXXXXXXXXXXXXX",
"XXXXXXXXXXXXXXXXXXXXXXXXXXXXXXXX",
"XXXXXXXXXXXXXXXXXXXXXXXXXXXXXXXX"
};
